HIERARCHY
ROOT pelvis
{
  OFFSET 0 100 0
  CHANNELS 6 Xposition Yposition Zposition Zrotation Xrotation Yrotation
  JOINT pelvis_right_femur
  {
    OFFSET -10.78128 -3.44521 -0.5502486
    CHANNELS 3 Zrotation Xrotation Yrotation
    JOINT right_femur_tibia
    {
      OFFSET -0.8047443 -44.0398 -0.1307829
      CHANNELS 3 Zrotation Xrotation Yrotation
      JOINT right_tibia_foot
      {
        OFFSET 3.006224 -47.83518 -5
        CHANNELS 3 Zrotation Xrotation Yrotation
        End Site
        {
          OFFSET 0 -5 15
        }
      }
    }
  }
  JOINT pelvis_left_femur
  {
    OFFSET 10.78128 -3.44521 -0.5502486
    CHANNELS 3 Zrotation Xrotation Yrotation
    JOINT left_femur_tibia
    {
      OFFSET 0.8047443 -44.0398 -0.1307829
      CHANNELS 3 Zrotation Xrotation Yrotation
      JOINT left_tibia_foot
      {
        OFFSET -4.370144 -48.10324 -4.275266
        CHANNELS 3 Zrotation Xrotation Yrotation
        End Site
        {
          OFFSET 0 -5 15
        }
      }
    }
  }
  JOINT pelvis_spine1
  {
    OFFSET 0 6.468898 -3.129235
    CHANNELS 3 Zrotation Xrotation Yrotation
    JOINT spine1
    {
      OFFSET 0 23.15396 4.99043
      CHANNELS 3 Zrotation Xrotation Yrotation
      JOINT spine2
      {
        OFFSET 0 20.79997 -5.064912
        CHANNELS 3 Zrotation Xrotation Yrotation
        JOINT neck
        {
          OFFSET 0 14.38658 9.616178
          CHANNELS 3 Zrotation Xrotation Yrotation
          End Site
          {
            OFFSET 0 20 0
          }
        }
      }
      JOINT right_manubrium
      {
        OFFSET -5.722621 16.35077 3.967754
        CHANNELS 3 Zrotation Xrotation Yrotation
        JOINT right_clavicle
        {
          OFFSET -13.16364 1.694482 -4.693211
          CHANNELS 3 Zrotation Xrotation Yrotation
          JOINT right_humerus
          {
            OFFSET -28.5034 -0.3100689 -2.792744
            CHANNELS 3 Zrotation Xrotation Yrotation
            JOINT right_radius
            {
              OFFSET -25.15693 0.02248979 -1.271978
              CHANNELS 3 Zrotation Xrotation Yrotation
              End Site
              {
                OFFSET -15 0 0
              }
            }
          }
        }
      }
      JOINT left_manubrium
      {
        OFFSET 5.722621 16.35077 3.967754
        CHANNELS 3 Zrotation Xrotation Yrotation
        JOINT left_clavicle
        {
          OFFSET 13.16364 1.694482 -4.693211
          CHANNELS 3 Zrotation Xrotation Yrotation
          JOINT left_humerus
          {
            OFFSET 29.39168 -1.063119 -2.237045
            CHANNELS 3 Zrotation Xrotation Yrotation
            JOINT left_radius
            {
              OFFSET 24.59957 -0.9528479 0.9047498
              CHANNELS 3 Zrotation Xrotation Yrotation
              End Site
              {
                OFFSET 15 -0 -0
              }
            }
          }
        }
      }
    }
  }
}
MOTION
Frames: 21
Frame Time: 0.0416666666667
559.2124 98.11355 2917.282 1.795944 -6.129349 25.4187 6.443201 -13.5948 4.709903 -0 20.55836 -0 -3.511656 -7.375407 -8.413745 -2.337011 10.96927 -8.718059 -0 51.4218 -0 -9.310551 -8.5789 13.33552 1.316964 -2.817426 6.825011 0.5413321 14.87398 -6.254116 2.024331 21.72816 2.555441 0.06574816 -22.46528 6.018277 -7.483324 -30.28614 10.88241 94.61501 12.76523 -11.84022 -0 0 22.58086 -23.55476 13.02806 14.92207 0.7286279 -21.23126 -7.622981 -95.61193 18.30739 33.63344 0 0 -10.59058 2.567586 13.98898 9.012335
561.4347 99.46163 2923.033 2.56696 -7.07071 24.54278 6.215052 -7.932228 4.74856 -0 19.46051 -0 -3.436507 -8.879453 -7.665056 -2.567682 4.721469 -8.203086 -0 57.87345 -0 -9.007792 -7.467195 14.80378 1.316841 -2.811482 6.844098 0.5406327 14.87271 -6.252461 2.02569 21.70542 2.523767 0.04511974 -22.44022 5.997439 -7.478792 -30.35204 10.88007 94.57743 12.78908 -11.75808 -0 0 22.71024 -23.54782 13.04656 14.93886 0.7150455 -21.20113 -7.60696 -95.64021 18.28151 33.71971 0 0 -10.53317 2.514837 13.96777 9.04303
563.6212 100.7184 2928.423 3.388684 -7.303014 23.67865 5.421954 -2.559901 4.859649 -0 16.81322 -0 -2.627362 -9.66833 -6.584374 -2.741187 -2.529333 -7.367217 -0 60.23421 -0 -8.686731 -7.15527 15.82675 1.315175 -2.801813 6.862699 0.5393464 14.86626 -6.248828 2.026237 21.68395 2.494865 0.02620969 -22.41888 5.977647 -7.479963 -30.41753 10.87387 94.54195 12.8133 -11.67105 -0 0 22.84143 -23.53811 13.0547 14.95557 0.7012631 -21.16594 -7.588058 -95.67019 18.26049 33.80663 0 0 -10.47373 2.457196 13.93867 9.079162
565.8285 101.5477 2933.628 3.898536 -7.027551 22.88062 4.571235 2.197338 4.891427 -0 14.15218 -0 -1.831777 -10.4481 -5.334227 -2.332145 -9.822779 -6.388231 -0 57.52325 -0 -8.390203 -7.160459 16.66738 1.311991 -2.788545 6.881245 0.5374536 14.85484 -6.243233 2.026037 21.66317 2.46797 0.008584289 -22.40037 5.958351 -7.486372 -30.48394 10.86388 94.50746 12.83822 -11.5775 -0 0 22.97714 -23.52576 13.05344 14.9728 0.6870302 -21.12531 -7.566115 -95.70255 18.24365 33.89605 0 0 -10.41122 2.393521 13.90148 9.121567
568.0733 101.7301 2938.757 3.904003 -6.600871 22.13192 4.114122 6.369213 4.713897 -0 12.25187 -0 -1.416482 -11.82206 -4.154149 -1.238255 -16.2303 -5.334974 -0 50.24743 -0 -8.051345 -7.292028 17.6289 1.307765 -2.770848 6.898896 0.5351524 14.83815 -6.236124 2.025066 21.64474 2.443892 -0.007577111 -22.38644 5.940544 -7.499315 -30.5479 10.85068 94.47769 12.86442 -11.48287 -0 0 23.11064 -23.50913 13.03941 14.98615 0.6733183 -21.08027 -7.540936 -95.73395 18.23104 33.98157 0 0 -10.34851 2.329199 13.85804 9.163702
570.3718 101.2376 2943.861 3.426173 -6.161698 21.40074 4.106616 10.07506 4.380164 -0 11.28805 -0 -1.209275 -13.82352 -3.165806 0.2264056 -21.26532 -4.263175 -0 40.20762 -0 -7.683641 -7.500274 18.63061 1.303352 -2.748154 6.912862 0.5328196 14.81615 -6.228357 2.023245 21.63295 2.426376 -0.02036552 -22.38188 5.927498 -7.520968 -30.59902 10.83559 94.4614 12.89069 -11.40248 -0 0 23.22101 -23.48656 13.00665 14.9876 0.6626609 -21.03502 -7.513714 -95.75714 18.22466 34.04677 0 0 -10.29446 2.276932 13.81332 9.192986
572.7812 100.2408 2949.028 2.666661 -5.622757 20.66234 4.214254 13.2873 4.034846 -0 11.30461 -0 -0.9097107 -15.868 -2.30376 1.536143 -24.85756 -3.329343 -0 29.93189 -0 -7.267813 -7.690065 19.36479 1.299277 -2.722246 6.91995 0.5307092 14.79035 -6.220601 2.020583 21.63161 2.420434 -0.02653304 -22.39079 5.922835 -7.551189 -30.62578 10.81999 94.46526 12.91275 -11.3523 -0 0 23.28482 -23.45989 12.95427 14.97379 0.6575153 -20.9959 -7.487844 -95.76698 18.22796 34.07655 0 0 -10.25909 2.247542 13.77299 9.202237
575.4069 99.04302 2954.417 1.98817 -4.953967 19.91606 3.946221 15.88907 3.831815 -0 12.48978 -0 -0.3856972 -16.91081 -1.503059 2.120156 -26.95423 -2.871743 -0 21.94658 -0 -6.660784 -7.716258 19.68558 1.295522 -2.696877 6.918759 0.5288786 14.76365 -6.213185 2.01728 21.64115 2.428595 -0.02386152 -22.413 5.927895 -7.586394 -30.62349 10.80494 94.48852 12.92587 -11.33866 -0 0 23.29184 -23.43401 12.88927 14.94894 0.6585738 -20.96805 -7.467269 -95.76386 18.24283 34.06757 0 0 -10.24726 2.242952 13.74081 9.194454
578.3578 97.97149 2960.193 1.80633 -4.309359 19.21661 2.940116 17.80411 3.918101 -0 15.37819 -0 0.3304275 -15.81267 -0.9224321 1.52973 -27.36662 -3.307717 -0 17.87884 -0 -5.75401 -7.544988 19.66429 1.292175 -2.675062 6.909758 0.5274463 14.7389 -6.206613 2.01366 21.65978 2.449777 -0.01263002 -22.44558 5.941787 -7.622337 -30.59405 10.79164 94.52691 12.92835 -11.36015 -0 0 23.24455 -23.41245 12.82013 14.91796 0.6652363 -20.9538 -7.454213 -95.74986 18.26787 34.02395 0 0 -10.25874 2.260872 13.71903 9.17385
581.6583 97.30714 2966.396 2.300711 -3.866694 18.72257 1.297123 18.82077 4.310853 -0 20.91223 -0 1.158076 -12.0503 -0.8919121 -0.219157 -26.00835 -4.634506 -0 17.67578 -0 -4.671389 -7.422366 19.32512 1.289599 -2.658149 6.894121 0.5266445 14.71801 -6.201623 2.010033 21.68548 2.481142 0.005347243 -22.48532 5.962836 -7.656031 -30.54164 10.78134 94.57678 12.92127 -11.41333 -0 0 23.14995 -23.39613 12.75237 14.88275 0.6766446 -20.95356 -7.449109 -95.7259 18.29987 33.95059 0 0 -10.29149 2.299437 13.70933 9.141145
585.1874 97.2772 2972.845 3.202072 -3.700866 18.6616 -0.2966233 18.30131 4.705954 -0 29.77609 -0 1.974475 -6.450492 -1.591631 -2.496849 -23.07093 -6.190284 -0 19.71809 -0 -3.727901 -7.77814 18.6223 1.287908 -2.647083 6.873541 0.5265604 14.70233 -6.19864 2.006653 21.71565 2.519278 0.02796565 -22.52836 5.988762 -7.684773 -30.47227 10.77473 94.63321 12.90616 -11.49155 -0 0 23.01915 -23.38569 12.6912 14.84627 0.691505 -20.96636 -7.451746 -95.69414 18.33556 33.85516 0 0 -10.34166 2.354197 13.71169 9.099429
588.7215 97.9906 2979.188 3.992699 -3.850204 19.16869 -1.077761 15.46888 4.707791 -0 40.99445 -0 2.524971 -0.9560456 -2.84359 -4.470015 -18.91309 -7.27505 -0 21.84652 -0 -3.108694 -8.797154 17.72519 1.28682 -2.642879 6.850398 0.5270246 14.69283 -6.197549 2.003739 21.74666 2.560257 0.05304836 -22.56978 6.016521 -7.705704 -30.39435 10.77169 94.68894 12.88441 -11.58369 -0 0 22.86873 -23.38252 12.64279 14.81422 0.7078784 -20.98984 -7.461569 -95.65933 18.37185 33.75005 0 0 -10.40285 2.416551 13.72404 9.056538
592.0618 99.31412 2985.104 4.33446 -4.331166 20.17141 -0.9098693 10.11069 4.359057 -0 51.52486 -0 2.532248 2.746409 -4.27299 -5.620607 -13.8871 -7.740186 -0 22.49365 -0 -2.62938 -10.19062 16.9569 1.28607 -2.645773 6.827086 0.5277923 14.68984 -6.19802 2.001464 21.77522 2.600333 0.07846269 -22.60539 6.043232 -7.717134 -30.31614 10.77175 94.73768 12.85785 -11.67863 -0 0 22.71524 -23.38717 12.61137 14.79118 0.7239189 -21.02085 -7.477385 -95.62608 18.40597 33.64724 0 0 -10.46818 2.47816 13.74357 9.019571
595.1287 100.8685 2990.464 4.243495 -5.025486 21.43887 -0.2473898 2.852554 3.985962 -0 57.87142 -0 1.952497 4.119496 -5.58169 -5.918272 -8.339543 -7.859824 -0 21.2531 -0 -2.020854 -11.5593 16.40478 1.285678 -2.654781 6.805072 0.5287459 14.69277 -6.199851 1.999896 21.7999 2.637112 0.1026085 -22.63352 6.067308 -7.719441 -30.24237 10.77456 94.77723 12.82863 -11.7703 -0 0 22.56843 -23.39844 12.59674 14.77752 0.7387042 -21.05663 -7.497547 -95.59618 18.43607 33.55266 0 0 -10.53325 2.535366 13.76828 8.99011
597.9474 102.1796 2995.344 3.942766 -5.668423 22.72056 0.3811203 -5.101569 3.638313 -0 58.03303 -0 1.04116 3.485846 -6.637151 -5.68091 -2.687044 -7.965697 -0 18.6738 -0 -1.39205 -12.84583 15.86875 1.285863 -2.668287 6.784717 0.5299188 14.70059 -6.20303 1.999006 21.82098 2.669819 0.1246826 -22.65479 6.088535 -7.714364 -30.17387 10.77998 94.80902 12.79865 -11.85805 -0 0 22.43026 -23.41408 12.59555 14.77027 0.7522595 -21.09556 -7.520519 -95.56869 18.46139 33.46594 0 0 -10.59683 2.58904 13.79737 8.965096
600.5837 102.8681 2999.942 3.650277 -5.964352 23.85321 0.6464687 -12.47907 3.08598 -0 52.21572 -0 0.2037805 1.624025 -7.426232 -5.318688 2.609842 -8.202213 -0 15.6892 -0 -1.152231 -14.30188 15.14787 1.286818 -2.6849 6.766028 0.5313687 14.71234 -6.207563 1.998741 21.8391 2.698283 0.1442949 -22.67022 6.107088 -7.703575 -30.11036 10.78788 94.83495 12.76925 -11.94256 -0 0 22.30047 -23.43217 12.60447 14.76649 0.7648261 -21.1366 -7.545142 -95.54238 18.4817 33.38541 0 0 -10.65873 2.640797 13.83043 8.941261
603.1074 102.776 3004.485 3.456751 -5.724079 24.78211 0.4995357 -18.46189 2.220112 -0 42.41312 -0 -0.2493119 -0.4412378 -7.970556 -5.121973 7.165859 -8.480733 -0 13.17502 -0 -1.526448 -16.08462 14.22406 1.288589 -2.703741 6.749606 0.5330573 14.72743 -6.21329 1.999112 21.85387 2.721589 0.1607572 -22.67963 6.122446 -7.687898 -30.05372 10.798 94.85477 12.74166 -12.02146 -0 0 22.18299 -23.45168 12.62239 14.76547 0.7760997 -21.1782 -7.570341 -95.51781 18.49632 33.31316 0 0 -10.7169 2.689475 13.86631 8.918479
605.5869 101.9778 3009.162 3.324012 -4.974099 25.52765 0.1735878 -22.88494 1.27508 -0 31.36975 -0 -0.2577636 -1.829192 -8.302327 -5.162865 10.80946 -8.63695 -0 11.75129 -0 -2.340546 -17.99519 13.22665 1.291125 -2.724091 6.736927 0.5348453 14.74545 -6.219849 2.000205 21.86369 2.737604 0.1727222 -22.68153 6.133151 -7.667613 -30.00885 10.80983 94.86593 12.71757 -12.08829 -0 0 22.08775 -23.47202 12.65005 14.76845 0.7850653 -21.21767 -7.594679 -95.49762 18.50372 33.25608 0 0 -10.76652 2.7307 13.9028 8.899585
608.086 100.7038 3014.105 3.162798 -3.946136 26.14701 0.01886815 -25.96866 0.6535165 -0 21.4622 -0 0.0223266 -2.192141 -8.491336 -5.32728 13.62338 -8.605018 -0 11.7719 -0 -3.283297 -19.59834 12.29875 1.294357 -2.745005 6.729882 0.5365635 14.76583 -6.226771 2.002127 21.86652 2.743616 0.1784587 -22.67412 6.137376 -7.643123 -29.98213 10.82273 94.86523 12.69918 -12.13468 -0 0 22.02751 -23.49244 12.68842 14.77703 0.7903851 -21.25149 -7.616309 -95.48521 18.50197 33.22312 0 0 -10.80132 2.758829 13.93703 8.888225
610.656 99.25024 3019.415 2.905535 -2.952606 26.70394 0.2975474 -27.89329 0.6337285 -0 14.17506 -0 0.3495157 -1.75621 -8.6277 -5.42668 15.81781 -8.444523 -0 13.42489 -0 -4.232385 -20.46586 11.49777 1.298185 -2.765312 6.730018 0.5380762 14.78777 -6.233577 2.004921 21.86077 2.737465 0.1765163 -22.65631 6.133719 -7.615271 -29.97894 10.836 94.85035 12.68858 -12.15348 -0 0 22.01303 -23.5119 12.73747 14.79209 0.7909397 -21.27631 -7.633375 -95.48334 18.48959 33.22165 0 0 -10.81585 2.769205 13.9662 8.887121
613.3255 97.91714 3025.162 2.533727 -2.278507 27.23295 1.10627 -28.60207 1.255337 -0 10.24272 -0 0.4901113 -1.104444 -8.770644 -5.287425 17.52701 -8.275805 -0 16.83062 -0 -5.284791 -20.27208 10.81738 1.302427 -2.78381 6.737856 0.5393135 14.81014 -6.239865 2.008488 21.84607 2.718613 0.16641 -22.6285 6.121868 -7.585362 -30.00137 10.84891 94.82106 12.68701 -12.14144 -0 0 22.04866 -23.52927 12.79539 14.81333 0.7863012 -21.29003 -7.644557 -95.49295 18.46646 33.2543 0 0 -10.80757 2.759899 13.9883 8.897069
